<svg width="1280" height="720" xmlns="http://www.w3.org/2000/svg" xmlns:xlink="http://www.w3.org/1999/xlink" overflow="hidden"><g><rect x="0" y="0" width="1280" height="720" fill="#FFFFFF"/><path d="M8 348C8 270.68 70.6801 208 148 208 225.32 208 288 270.68 288 348 288 425.32 225.32 488 148 488 70.6801 488 8 425.32 8 348Z" stroke="#000000" stroke-width="2" stroke-miterlimit="8" fill="#D9D9D9" fill-rule="evenodd"/><text font-family="Aptos,Aptos_MSFontService,sans-serif" font-weight="700" font-size="53.3333" transform="translate(59.6562 339)">Stage 1</text><text font-family="Aptos,Aptos_MSFontService,sans-serif" font-style="italic" font-weight="400" font-size="42.6667" transform="translate(58.7895 393)">individua</text><text font-family="Aptos,Aptos_MSFontService,sans-serif" font-style="italic" font-weight="400" font-size="42.6667" transform="translate(225.29 393)">l</text><path d="M626 348C626 270.68 688.68 208 766 208 843.32 208 906 270.68 906 348 906 425.32 843.32 488 766 488 688.68 488 626 425.32 626 348Z" stroke="#000000" stroke-width="2" stroke-miterlimit="8" fill="#D9D9D9" fill-rule="evenodd"/><text font-family="Aptos,Aptos_MSFontService,sans-serif" font-weight="700" font-size="53.3333" transform="translate(677.919 339)">Stage 2</text><text font-family="Aptos,Aptos_MSFontService,sans-serif" font-style="italic" font-weight="400" font-size="42.6667" transform="translate(692.406 393)">as</text><text font-family="Aptos,Aptos_MSFontService,sans-serif" font-style="italic" font-weight="400" font-size="42.6667" transform="translate(744.406 393)">team</text><path d="M989 348C989 270.68 1051.68 208 1129 208 1206.32 208 1269 270.68 1269 348 1269 425.32 1206.32 488 1129 488 1051.68 488 989 425.32 989 348Z" stroke="#000000" stroke-width="2" stroke-miterlimit="8" fill="#D9D9D9" fill-rule="evenodd"/><text font-family="Aptos,Aptos_MSFontService,sans-serif" font-weight="700" font-size="53.3333" transform="translate(1041.09 339)">Stage 3</text><text font-family="Aptos,Aptos_MSFontService,sans-serif" font-style="italic" font-weight="400" font-size="42.6667" transform="translate(1040.22 393)">individual</text><path d="M288 346 356.634 346 356.634 350 288 350ZM354.634 342 366.634 348 354.634 354Z"/><path d="M906 346 979.005 346 979.005 350 906 350ZM977.005 342 989.005 348 977.005 354Z"/><path d="M356 348 455 249 554 348 455 447Z" stroke="#000000" stroke-width="2" stroke-miterlimit="8" fill="#FFFFFF" fill-rule="evenodd"/><text font-family="Aptos,Aptos_MSFontService,sans-serif" font-style="italic" font-weight="400" font-size="24" transform="translate(426.851 341)">Team</text><text font-family="Aptos,Aptos_MSFontService,sans-serif" font-style="italic" font-weight="400" font-size="24" transform="translate(415.378 370)">formin</text><text font-family="Aptos,Aptos_MSFontService,sans-serif" font-style="italic" font-weight="400" font-size="24" transform="translate(482.238 370)">g</text><path d="M554 346 616.19 346 616.19 350 554 350ZM614.19 342 626.19 348 614.19 354Z"/><path d="M0-2 88.8472-2 88.8472 676.415 51.111 676.415 51.111 672.415 86.8472 672.415 84.8472 674.415 84.8472 0 86.8472 2 0 2ZM53.111 680.415 41.111 674.415 53.111 668.415Z" transform="matrix(1.83697e-16 1 1 -1.83697e-16 455 447)"/><text font-family="Aptos,Aptos_MSFontService,sans-serif" font-style="italic" font-weight="400" font-size="24" transform="translate(563.213 339)">yes</text><text font-family="Aptos,Aptos_MSFontService,sans-serif" font-style="italic" font-weight="400" font-size="24" transform="translate(464.241 481)">no</text><path d="M765 208.333 765 172.371 1132.17 172.371 1132.17 197 1128.17 197 1128.17 174.371 1130.17 176.371 767 176.371 769 174.371 769 208.333ZM1136.17 195 1130.17 207 1124.17 195Z" fill="#747474"/><text fill="#747474" font-family="Aptos,Aptos_MSFontService,sans-serif" font-style="italic" font-weight="400" font-size="24" transform="translate(856.634 161)">dropout</text><text fill="#747474" font-family="Aptos,Aptos_MSFontService,sans-serif" font-style="italic" font-weight="400" font-size="24" transform="translate(943.161 161)">in</text><text fill="#747474" font-family="Aptos,Aptos_MSFontService,sans-serif" font-style="italic" font-weight="400" font-size="24" transform="translate(966.661 161)">team</text></g></svg>